<svg width="52" height="52" viewBox="0 0 52 52" fill="none" xmlns="http://www.w3.org/2000/svg">
<circle cx="25.5566" cy="26.2802" r="18" transform="rotate(45 25.5566 26.2802)" fill="white"/>
<path d="M26.7791 27.3302L32.1776 27.2555C32.3209 27.256 32.4637 27.228 32.5976 27.173C32.7314 27.1181 32.8538 27.0373 32.9574 26.9354C33.061 26.8335 33.1439 26.7125 33.2011 26.5796C33.2584 26.4466 33.2889 26.3043 33.2909 26.1609C33.2928 26.0175 33.2662 25.876 33.2126 25.7445C33.159 25.6131 33.0794 25.4943 32.9785 25.3952C32.8776 25.2962 32.7575 25.2187 32.625 25.1674C32.4926 25.1161 32.3505 25.0919 32.2072 25.0964L26.8087 25.1696L26.8826 19.7718C26.8871 19.6284 26.8629 19.4864 26.8116 19.354C26.7603 19.2215 26.6828 19.1014 26.5837 19.0005C26.4847 18.8996 26.3659 18.82 26.2345 18.7664C26.103 18.7128 25.9615 18.6862 25.8181 18.6881C25.6747 18.6901 25.5324 18.7206 25.3994 18.7779C25.2664 18.8351 25.1455 18.918 25.0436 19.0216C24.9417 19.1252 24.8609 19.2476 24.806 19.3814C24.751 19.5153 24.723 19.6581 24.7235 19.8014L24.6496 25.1992L19.251 25.2739C19.1077 25.2733 18.9649 25.3014 18.8311 25.3563C18.6972 25.4113 18.5748 25.4921 18.4712 25.594C18.3676 25.6959 18.2847 25.8168 18.2275 25.9498C18.1702 26.0828 18.1397 26.2251 18.1378 26.3685C18.1358 26.5118 18.1624 26.6534 18.216 26.7848C18.2697 26.9163 18.3492 27.035 18.4501 27.1341C18.551 27.2332 18.6711 27.3107 18.8036 27.362C18.936 27.4133 19.0781 27.4374 19.2214 27.433L24.6192 27.359L24.546 32.7575C24.5416 32.9009 24.5657 33.043 24.617 33.1754C24.6683 33.3078 24.7458 33.428 24.8449 33.5289C24.944 33.6298 25.0627 33.7093 25.1941 33.763C25.3256 33.8166 25.4671 33.8432 25.6105 33.8412C25.7539 33.8393 25.8962 33.8088 26.0292 33.7515C26.1622 33.6943 26.2831 33.6114 26.385 33.5078C26.4869 33.4042 26.5677 33.2818 26.6227 33.1479C26.6776 33.0141 26.7056 32.8713 26.7051 32.728L26.7798 27.3294L26.7791 27.3302Z" fill="black"/>
</svg>
