<svg width="28" height="25" viewBox="0 0 28 25" fill="none" xmlns="http://www.w3.org/2000/svg">
<path d="M14.9954 15.633L15.0002 17.6324C15.0022 18.4288 14.3776 19.0863 13.6053 19.0863C13.6041 19.0863 13.6029 19.0863 13.6017 19.0863C12.831 19.0863 12.2053 18.4347 12.2035 17.6396L12.1987 15.6442C12.1942 13.7485 11.2717 11.9975 9.73078 10.9635L7.92744 9.75215C7.23479 9.28742 6.79076 8.50063 6.73967 7.64837C6.68886 6.80149 7.01748 6.0047 7.64143 5.46249C8.20367 4.97372 8.98386 4.87489 9.35052 4.85672C9.43964 4.84692 9.53109 4.84663 9.62348 4.85471C9.69908 4.8498 9.77553 4.84865 9.85299 4.8524L17.6512 5.2008C18.6852 5.24695 19.5111 6.05768 19.6399 7.08087L19.7412 7.20047C20.6535 8.27779 21.9724 8.89566 23.3594 8.89566H23.9469C24.7191 8.89566 25.3452 9.54132 25.3452 10.3377C25.3452 11.1341 24.7191 11.7798 23.9469 11.7798H23.3594C21.3351 11.7798 19.4032 10.9474 17.9824 9.48056C17.8463 9.50931 17.7059 9.52488 17.562 9.52488C17.5313 9.52488 17.5007 9.52421 17.4697 9.52287L12.2059 9.28771C13.9644 10.8804 14.9896 13.1749 14.9954 15.633ZM27.9555 18.8219C27.9555 21.8881 25.5451 24.3738 22.5718 24.3738C19.5985 24.3738 17.1881 21.8881 17.1881 18.8219C17.1881 15.7557 19.5985 13.2699 22.5718 13.2699C25.5451 13.2699 27.9555 15.7557 27.9555 18.8219ZM26.5571 18.8219C26.5571 16.5557 24.7693 14.712 22.5718 14.712C20.3743 14.712 18.5865 16.5557 18.5865 18.8219C18.5865 21.088 20.3743 22.9318 22.5718 22.9318C24.7693 22.9318 26.5571 21.088 26.5571 18.8219ZM11.0819 18.8219C11.0819 21.8881 8.67147 24.3738 5.69817 24.3738C2.72487 24.3738 0.314453 21.8881 0.314453 18.8219C0.314453 15.7557 2.72487 13.2699 5.69817 13.2699C8.67147 13.2699 11.0819 15.7557 11.0819 18.8219ZM9.68351 18.8219C9.68351 16.5557 7.89565 14.712 5.69817 14.712C3.50068 14.712 1.71282 16.5557 1.71282 18.8219C1.71282 21.088 3.50068 22.9318 5.69817 22.9318C7.89565 22.9318 9.68351 21.088 9.68351 18.8219ZM23.5253 6.0248C24.8305 5.48027 25.4605 3.94765 24.9324 2.60162C24.4044 1.2556 22.9182 0.605898 21.613 1.15052C20.3077 1.69514 19.6777 3.22767 20.2059 4.57369C20.734 5.91972 22.2202 6.56942 23.5253 6.0248Z" fill="white"/>
</svg>
