<svg width="30" height="23" viewBox="0 0 30 23" fill="none" xmlns="http://www.w3.org/2000/svg">
<path d="M17.3686 4.08068L17.4639 4.11095L17.3686 4.08068L15.2203 10.8467H10.5289C10.5192 10.8388 10.5093 10.8308 10.4994 10.8229L9.11806 7.70376C9.42129 7.54584 9.62759 7.22015 9.62759 6.84585C9.62759 6.32029 9.2199 5.88612 8.70727 5.88612H5.60124C5.08861 5.88612 4.68093 6.32029 4.68093 6.84585C4.68093 7.3714 5.08861 7.80557 5.60124 7.80557H7.13577L7.95384 9.65285C7.60861 9.5877 7.25324 9.55342 6.89034 9.55342C3.58279 9.55337 0.9 12.372 0.9 15.8267C0.9 19.2815 3.58279 22.1 6.89034 22.1C9.88552 22.1 12.3682 19.7881 12.8102 16.7864H14.6087C15.008 16.7864 15.3584 16.5188 15.4823 16.1284L15.387 16.0982L15.4823 16.1284L18.4578 6.75709C18.7036 8.04162 19.0826 9.37442 19.5939 10.7504C18.0947 11.8921 17.1193 13.7429 17.1193 15.8267C17.1193 19.2815 19.8021 22.1 23.1096 22.1C26.4172 22.1001 29.1 19.2815 29.1 15.8267C29.1 12.372 26.4172 9.55337 23.1097 9.55337C22.4591 9.55337 21.8326 9.66287 21.2456 9.86464C20.3943 7.51523 19.7384 4.68887 20.0308 1.96652C20.0598 1.69662 19.9777 1.42578 19.8039 1.22191C19.6298 1.01784 19.3799 0.9 19.1162 0.9H16.3791C15.8664 0.9 15.4587 1.33417 15.4587 1.85973C15.4587 2.38528 15.8664 2.81945 16.3791 2.81945H16.7934H17.769L17.3686 4.08068ZM6.89034 16.7864H10.9377C10.5193 18.73 8.86082 20.1805 6.89034 20.1805C4.60663 20.1806 2.74063 18.2318 2.74063 15.8267C2.74063 13.4216 4.60663 11.4728 6.89034 11.4728C8.86082 11.4728 10.5193 12.9234 10.9377 14.867H6.89034C6.37771 14.867 5.97002 15.3012 5.97002 15.8267C5.97002 16.3523 6.37771 16.7864 6.89034 16.7864ZM14.6109 12.7661L13.9439 14.867H12.8102C12.6994 14.1146 12.4607 13.4059 12.1178 12.7661H14.6109ZM22.351 16.3701L22.4345 16.3151L23.785 15.3387L23.8686 15.2838C23.8686 15.2838 23.8686 15.2838 23.8686 15.2838C23.8495 15.2547 22.9116 13.8092 21.9594 11.6436C22.3248 11.5327 22.7107 11.4729 23.1097 11.4729C25.3934 11.4729 27.2594 13.4216 27.2594 15.8268C27.2594 18.2319 25.3934 20.1806 23.1097 20.1806C20.826 20.1806 18.96 18.2319 18.96 15.8267C18.96 14.5397 19.4954 13.3826 20.3433 12.5852C21.3425 14.8288 22.3043 16.2991 22.351 16.3701Z" fill="white" stroke="white" stroke-width="0.2"/>
</svg>
