<svg width="100" height="94" viewBox="0 0 100 94" fill="none" xmlns="http://www.w3.org/2000/svg">
<path d="M91.0219 59.7115C91.0084 59.7057 88.8611 58.8195 88.8611 58.8195L92.5135 17.3137C96.0385 16.434 98.7314 13.4369 99.1082 9.66211L99.7512 3.2209C99.9119 1.61094 98.7371 0.175389 97.127 0.0146468C95.5168 -0.145705 94.0814 1.0289 93.9207 2.63887L93.2777 9.08027C93.1277 10.5846 91.8744 11.7189 90.3627 11.7189H66.3086C64.6906 11.7189 63.3789 13.0307 63.3789 14.6486C63.3789 16.2666 64.6906 17.5783 66.3086 17.5783H74.8332L71.8707 51.8092C71.8707 51.8092 35.5955 36.8465 35.1564 36.6875V29.2971H38.0861C39.7041 29.2971 41.0158 27.9853 41.0158 26.3674C41.0158 24.7494 39.7041 23.4377 38.0861 23.4377H20.508C18.8926 23.4377 17.5783 22.1234 17.5783 20.508V14.6486C17.5783 13.0307 16.2666 11.7189 14.6486 11.7189C13.0307 11.7189 11.7189 13.0307 11.7189 14.6486V20.508C11.7189 24.3273 14.1684 27.5838 17.5783 28.7932V36.6646C7.34766 40.2924 0 50.0654 0 61.5236C0 75.0723 10.2723 86.265 23.4375 87.7271V90.8205C23.4375 92.4385 24.7492 93.7502 26.3672 93.7502C27.9852 93.7502 29.2969 92.4385 29.2969 90.8205V87.8908H76.5625V90.8205C76.5625 92.4385 77.8742 93.7502 79.4922 93.7502C81.1102 93.7502 82.4219 92.4385 82.4219 90.8205V87.8908H85.3516C93.4287 87.8908 100 81.3195 100 73.2424C100 67.3709 96.476 62.0598 91.0219 59.7115ZM80.7145 17.5783H86.6084L83.1853 56.4775L77.5492 54.152L80.7145 17.5783ZM23.4375 29.2971H29.2969V35.3211C28.3303 35.2129 27.3533 35.1564 26.3672 35.1564C25.377 35.1564 24.3998 35.2133 23.4375 35.3201V29.2971ZM85.3516 82.0314H25.4752C14.5795 81.5627 5.85938 72.5328 5.85938 61.5236C5.85938 50.2156 15.0592 41.0158 26.3672 41.0158C29.0871 41.0158 31.7176 41.5482 34.1852 42.5982C34.1951 42.6023 88.7236 65.1014 88.7236 65.1014C92.0152 66.5271 94.1406 69.7205 94.1406 73.2424C94.1406 78.0887 90.1979 82.0314 85.3516 82.0314ZM50 70.3127H44.8324L39.9316 67.0455C40.6283 65.3402 41.0156 63.4768 41.0156 61.5236C41.0156 53.4465 34.4443 46.8752 26.3672 46.8752C18.29 46.8752 11.7188 53.4465 11.7188 61.5236C11.7188 69.6008 18.29 76.1721 26.3672 76.1721C30.3844 76.1721 34.0281 74.5457 36.6772 71.918L42.3031 75.6686C42.7406 75.9645 43.341 76.1703 43.9426 76.1703C43.9445 76.1703 43.9463 76.1699 43.948 76.1699H50C51.618 76.1699 52.9297 74.8602 52.9297 73.2422C52.9297 71.6242 51.618 70.3127 50 70.3127ZM34.8871 63.6826L27.9922 59.0861C26.6459 58.1887 24.8268 58.5523 23.9295 59.8986C23.0318 61.2449 23.3957 63.0639 24.742 63.9613L31.6334 68.5557C30.1648 69.6584 28.341 70.3127 26.3672 70.3127C21.5209 70.3127 17.5781 66.3699 17.5781 61.5236C17.5781 56.6773 21.5209 52.7346 26.3672 52.7346C31.2135 52.7346 35.1562 56.6773 35.1562 61.5236C35.1562 62.2686 35.0623 62.9916 34.8871 63.6826Z" fill="white"/>
</svg>
