<svg width="102" height="91" viewBox="0 0 102 91" fill="none" xmlns="http://www.w3.org/2000/svg">
<path d="M99.3333 42.1663H79.5638L89.1986 32.5315L89.1986 32.5315C90.0444 31.6854 90.0444 30.3139 89.1986 29.4678L89.1986 29.4677L80.0919 20.3611L80.0918 20.361C79.2457 19.5152 77.8742 19.5152 77.0282 20.361L77.0281 20.3611C74.6194 22.7698 70.7139 22.7698 68.3052 20.3611C65.8965 17.9524 65.8965 14.0469 68.3052 11.6382L68.3053 11.6381C69.1511 10.792 69.1511 9.42055 68.3053 8.57447L68.3052 8.57441L60.8652 1.13442L60.8652 1.13436C60.0191 0.288547 58.6476 0.288547 57.8015 1.13436L57.8014 1.13442L16.7696 42.1663H2.66667C1.47011 42.1663 0.5 43.1364 0.5 44.333V57.6663C0.5 58.8629 1.47011 59.833 2.66667 59.833C6.0724 59.833 8.83333 62.5939 8.83333 65.9996C8.83333 69.4054 6.0724 72.1663 2.66667 72.1663C1.47011 72.1663 0.5 73.1364 0.5 74.333V87.6663C0.5 88.8628 1.47011 89.833 2.66667 89.833H99.3333C100.53 89.833 101.5 88.8628 101.5 87.6663V74.333C101.5 73.1364 100.53 72.1663 99.3333 72.1663C95.9276 72.1663 93.1667 69.4054 93.1667 65.9996C93.1667 62.5939 95.9276 59.833 99.3333 59.833C100.53 59.833 101.5 58.8629 101.5 57.6663V44.333C101.5 43.1364 100.53 42.1663 99.3333 42.1663ZM72.5319 39.1982L72.5319 39.1981C73.3778 38.352 73.3778 36.9806 72.5319 36.1345L72.5319 36.1344L54.1986 17.8011L54.1985 17.801C53.3524 16.9552 51.9809 16.9552 51.1348 17.801L51.1348 17.8011L26.7696 42.1663H22.8971L59.3333 5.73008L63.8663 10.263C60.7912 14.9508 61.9434 21.2714 66.546 24.5598C70.0815 27.0859 74.7932 27.166 78.4032 24.7999L84.6029 30.9996L73.4362 42.1663H69.5638L72.5319 39.1982ZM4.83333 55.7236V46.4996H17.1667V50.9996C17.1667 51.2758 17.3905 51.4996 17.6667 51.4996H21C21.2761 51.4996 21.5 51.2758 21.5 50.9996V46.4996H97.1667V55.7235C91.6788 56.8717 88.0318 62.1616 88.9694 67.74C89.6879 72.0139 92.9532 75.392 97.1667 76.2756V85.4996H84.8333V79.333C84.8333 79.0568 84.6095 78.833 84.3333 78.833H81C80.7239 78.833 80.5 79.0568 80.5 79.333V85.4996H21.5V84.333C21.5 84.0568 21.2761 83.833 21 83.833H17.6667C17.3905 83.833 17.1667 84.0568 17.1667 84.333V85.4996H4.83333V76.2757C10.3212 75.1275 13.9682 69.8379 13.0306 64.2593L12.6038 64.331L13.0306 64.2592C12.3121 59.9853 9.04703 56.6072 4.83333 55.7236ZM67.9362 37.6663L63.4362 42.1663H32.8971L52.6667 22.3967L67.9362 37.6663Z" fill="white" stroke="white" stroke-linecap="round" stroke-linejoin="round"/>
<path d="M84.8333 49.333C84.8333 49.0569 84.6095 48.833 84.3333 48.833H81C80.7239 48.833 80.5 49.0569 80.5 49.333V55.9997C80.5 56.2758 80.7239 56.4997 81 56.4997H84.3333C84.6095 56.4997 84.8333 56.2758 84.8333 55.9997V49.333Z" fill="white" stroke="white" stroke-linecap="round" stroke-linejoin="round"/>
<path d="M84.8333 59.333C84.8333 59.0569 84.6095 58.833 84.3333 58.833H81C80.7239 58.833 80.5 59.0569 80.5 59.333V65.9997C80.5 66.2758 80.7239 66.4997 81 66.4997H84.3333C84.6095 66.4997 84.8333 66.2758 84.8333 65.9997V59.333Z" fill="white" stroke="white" stroke-linecap="round" stroke-linejoin="round"/>
<path d="M84.8333 69.333C84.8333 69.0569 84.6095 68.833 84.3333 68.833H81C80.7239 68.833 80.5 69.0569 80.5 69.333V75.9997C80.5 76.2758 80.7239 76.4997 81 76.4997H84.3333C84.6095 76.4997 84.8333 76.2758 84.8333 75.9997V69.333Z" fill="white" stroke="white" stroke-linecap="round" stroke-linejoin="round"/>
<path d="M21.4993 54.333C21.4993 54.0569 21.2755 53.833 20.9993 53.833H17.666C17.3899 53.833 17.166 54.0569 17.166 54.333V60.9997C17.166 61.2758 17.3899 61.4997 17.666 61.4997H20.9993C21.2755 61.4997 21.4993 61.2758 21.4993 60.9997V54.333Z" fill="white" stroke="white" stroke-linecap="round" stroke-linejoin="round"/>
<path d="M21.4993 64.333C21.4993 64.0569 21.2755 63.833 20.9993 63.833H17.666C17.3899 63.833 17.166 64.0569 17.166 64.333V70.9997C17.166 71.2758 17.3899 71.4997 17.666 71.4997H20.9993C21.2755 71.4997 21.4993 71.2758 21.4993 70.9997V64.333Z" fill="white" stroke="white" stroke-linecap="round" stroke-linejoin="round"/>
<path d="M21.4993 74.333C21.4993 74.0569 21.2755 73.833 20.9993 73.833H17.666C17.3899 73.833 17.166 74.0569 17.166 74.333V80.9997C17.166 81.2758 17.3899 81.4997 17.666 81.4997H20.9993C21.2755 81.4997 21.4993 81.2758 21.4993 80.9997V74.333Z" fill="white" stroke="white" stroke-linecap="round" stroke-linejoin="round"/>
<path d="M74.3333 53.833C72.7684 53.833 71.5 52.5646 71.5 50.9997C71.5 49.8031 70.5299 48.833 69.3333 48.833H32.6667C31.4701 48.833 30.5 49.8031 30.5 50.9997C30.5 52.5646 29.2316 53.833 27.6667 53.833C26.4701 53.833 25.5 54.8031 25.5 55.9997V75.9997C25.5 77.1962 26.4701 78.1663 27.6667 78.1663C29.2316 78.1663 30.5 79.4348 30.5 80.9997C30.5 82.1962 31.4701 83.1663 32.6667 83.1663H69.3333C70.5299 83.1663 71.5 82.1962 71.5 80.9997C71.5 79.4348 72.7684 78.1663 74.3333 78.1663C75.5299 78.1663 76.5 77.1962 76.5 75.9997V55.9997C76.5 54.8031 75.5299 53.833 74.3333 53.833ZM72.1667 74.1674C69.9485 74.875 68.2087 76.6148 67.5011 78.833H34.4989C33.7913 76.6148 32.0515 74.875 29.8333 74.1674V57.8319C32.0515 57.1243 33.7913 55.3845 34.4989 53.1663H67.5011C68.2087 55.3845 69.9485 57.1243 72.1667 57.8319V74.1674Z" fill="white" stroke="white" stroke-linecap="round" stroke-linejoin="round"/>
</svg>
