<svg width="23" height="23" viewBox="0 0 23 23" fill="none" xmlns="http://www.w3.org/2000/svg">
<path d="M8.04336 12.3145C8.04336 12.0389 7.81476 11.8157 7.53269 11.8157H5.75063C5.46888 11.8157 5.24023 12.0389 5.24023 12.3145V14.0569C5.24023 14.3328 5.46888 14.5562 5.75063 14.5562H7.53269C7.81476 14.5562 8.04336 14.3328 8.04336 14.0569V12.3145Z" fill="black"/>
<path d="M12.4962 12.3145C12.4962 12.0389 12.2676 11.8157 11.986 11.8157H10.2038C9.92201 11.8157 9.69336 12.0389 9.69336 12.3145V14.0569C9.69336 14.3328 9.92201 14.5562 10.2038 14.5562H11.986C12.2676 14.5562 12.4962 14.3328 12.4962 14.0569V12.3145Z" fill="black"/>
<path d="M16.9516 12.3145C16.9516 12.0389 16.7229 11.8157 16.4412 11.8157H14.6591C14.377 11.8157 14.1484 12.0389 14.1484 12.3145V14.0569C14.1484 14.3328 14.377 14.5562 14.6591 14.5562H16.4412C16.7229 14.5562 16.9516 14.3328 16.9516 14.0569V12.3145Z" fill="black"/>
<path d="M8.04336 16.6698C8.04336 16.3937 7.81476 16.1707 7.53269 16.1707H5.75063C5.46888 16.1707 5.24023 16.3937 5.24023 16.6698V18.4118C5.24023 18.6876 5.46888 18.9109 5.75063 18.9109H7.53269C7.81476 18.9109 8.04336 18.6875 8.04336 18.4118V16.6698Z" fill="black"/>
<path d="M12.4962 16.6698C12.4962 16.3937 12.2676 16.1707 11.986 16.1707H10.2038C9.92201 16.1707 9.69336 16.3937 9.69336 16.6698V18.4118C9.69336 18.6876 9.92201 18.9109 10.2038 18.9109H11.986C12.2676 18.9109 12.4962 18.6875 12.4962 18.4118V16.6698Z" fill="black"/>
<path d="M16.9516 16.6698C16.9516 16.3937 16.7229 16.1707 16.4414 16.1707H14.6591C14.377 16.1707 14.1484 16.3937 14.1484 16.6698V18.4118C14.1484 18.6876 14.377 18.9109 14.6591 18.9109H16.4414C16.7229 18.9109 16.9516 18.6875 16.9516 18.4118V16.6698Z" fill="black"/>
<path d="M20.1375 2.6265V5.28778C20.1375 6.49066 19.1396 7.45999 17.9096 7.45999H16.5042C15.2742 7.45999 14.263 6.49066 14.263 5.28778V2.61694H7.92842V5.28778C7.92842 6.49066 6.9173 7.45999 5.68744 7.45999H4.28175C3.05185 7.45999 2.05396 6.49066 2.05396 5.28778V2.6265C0.979012 2.65818 0.0957031 3.52796 0.0957031 4.59702V20.1934C0.0957031 21.2826 0.998508 22.1771 2.11236 22.1771H20.079C21.1912 22.1771 22.0957 21.2807 22.0957 20.1934V4.59702C22.0957 3.52796 21.2124 2.65818 20.1375 2.6265ZM19.4847 19.2222C19.4847 19.6929 19.0944 20.0748 18.6129 20.0748H3.54013C3.05858 20.0748 2.66829 19.6929 2.66829 19.2222V11.1661C2.66829 10.6952 3.05853 10.3134 3.54013 10.3134H18.6128C19.0944 10.3134 19.4847 10.6952 19.4847 11.1661L19.4847 19.2222Z" fill="black"/>
<path d="M4.27579 6.03341H5.66595C6.0879 6.03341 6.43003 5.69936 6.43003 5.28676V0.92392C6.43003 0.511274 6.0879 0.177002 5.66595 0.177002H4.27579C3.8538 0.177002 3.51172 0.511274 3.51172 0.92392V5.28676C3.51172 5.69936 3.8538 6.03341 4.27579 6.03341Z" fill="black"/>
<path d="M16.4867 6.03341H17.8768C18.2985 6.03341 18.6406 5.69936 18.6406 5.28676V0.92392C18.6407 0.511274 18.2986 0.177002 17.8768 0.177002H16.4867C16.0648 0.177002 15.7227 0.511274 15.7227 0.92392V5.28676C15.7227 5.69936 16.0648 6.03341 16.4867 6.03341Z" fill="black"/>
</svg>
