<svg width="17" height="17" viewBox="0 0 17 17" fill="none" xmlns="http://www.w3.org/2000/svg">
<path d="M10.8946 8.34238L16.1971 2.89105C16.3403 2.74883 16.4546 2.57872 16.5332 2.39063C16.6118 2.20254 16.6532 2.00024 16.6549 1.79554C16.6567 1.59084 16.6187 1.38783 16.5433 1.19837C16.4679 1.0089 16.3565 0.836773 16.2156 0.692022C16.0748 0.547271 15.9073 0.432797 15.723 0.355281C15.5386 0.277764 15.3411 0.238758 15.142 0.240537C14.9428 0.242316 14.746 0.284844 14.563 0.365642C14.3799 0.446439 14.2144 0.563886 14.0761 0.711131L8.77206 6.16092L3.46956 0.711131C3.33119 0.563886 3.16567 0.446439 2.98266 0.365642C2.79966 0.284844 2.60283 0.242316 2.40366 0.240537C2.20449 0.238758 2.00697 0.277764 1.82263 0.355281C1.63828 0.432797 1.4708 0.547271 1.32996 0.692022C1.18913 0.836773 1.07775 1.0089 1.00232 1.19837C0.926903 1.38783 0.888951 1.59084 0.890682 1.79554C0.892412 2.00024 0.933792 2.20254 1.01241 2.39063C1.09102 2.57872 1.20529 2.74883 1.34856 2.89105L6.65106 8.34084L1.34856 13.7922C1.20529 13.9344 1.09102 14.1045 1.01241 14.2926C0.933792 14.4807 0.892412 14.683 0.890682 14.8877C0.888951 15.0924 0.926903 15.2954 1.00232 15.4849C1.07775 15.6743 1.18913 15.8464 1.32996 15.9912C1.4708 16.136 1.63828 16.2504 1.82263 16.3279C2.00697 16.4055 2.20449 16.4445 2.40366 16.4427C2.60283 16.4409 2.79966 16.3984 2.98266 16.3176C3.16567 16.2368 3.33119 16.1193 3.46956 15.9721L8.77206 10.5223L14.0761 15.9721C14.2144 16.1193 14.3799 16.2368 14.563 16.3176C14.746 16.3984 14.9428 16.4409 15.142 16.4427C15.3411 16.4445 15.5386 16.4055 15.723 16.3279C15.9073 16.2504 16.0748 16.136 16.2156 15.9912C16.3565 15.8464 16.4679 15.6743 16.5433 15.4849C16.6187 15.2954 16.6567 15.0924 16.6549 14.8877C16.6532 14.683 16.6118 14.4807 16.5332 14.2926C16.4546 14.1045 16.3403 13.9344 16.1971 13.7922L10.8946 8.34084V8.34238Z" fill="black"/>
</svg>
