<svg width="24" height="25" viewBox="0 0 24 25" fill="none" xmlns="http://www.w3.org/2000/svg">
<circle cx="12.0273" cy="12.9303" r="11.9727" transform="rotate(90 12.0273 12.9303)" fill="black"/>
<path d="M12.1077 14.1609L14.6819 16.6648C14.7491 16.7325 14.8294 16.7865 14.9182 16.8236C15.0071 16.8607 15.1026 16.8802 15.1993 16.8811C15.2959 16.8819 15.3918 16.864 15.4813 16.8283C15.5707 16.7927 15.652 16.7401 15.7204 16.6736C15.7887 16.6071 15.8428 16.528 15.8794 16.441C15.916 16.3539 15.9344 16.2607 15.9336 16.1666C15.9327 16.0726 15.9126 15.9796 15.8745 15.8932C15.8363 15.8068 15.7809 15.7286 15.7113 15.6633L13.1378 13.1586L15.7113 10.6547C15.7809 10.5893 15.8363 10.5112 15.8745 10.4247C15.9126 10.3383 15.9327 10.2454 15.9336 10.1513C15.9344 10.0573 15.916 9.96399 15.8794 9.87694C15.8428 9.78989 15.7887 9.7108 15.7204 9.64429C15.652 9.57779 15.5707 9.52519 15.4813 9.48958C15.3918 9.45396 15.2959 9.43604 15.1993 9.43686C15.1026 9.43767 15.0071 9.45721 14.9182 9.49434C14.8294 9.53146 14.7491 9.58542 14.6819 9.65307L12.1084 12.157L9.5342 9.65307C9.46704 9.58542 9.38671 9.53146 9.29789 9.49434C9.20907 9.45721 9.11354 9.43767 9.01688 9.43686C8.92021 9.43604 8.82435 9.45396 8.73488 9.48958C8.64541 9.52519 8.56413 9.57779 8.49577 9.64429C8.42742 9.7108 8.37336 9.78989 8.33676 9.87694C8.30015 9.96399 8.28173 10.0573 8.28257 10.1513C8.28341 10.2454 8.30349 10.3383 8.34165 10.4247C8.3798 10.5112 8.43526 10.5893 8.5048 10.6547L11.0783 13.1586L8.5048 15.6633C8.43526 15.7286 8.3798 15.8068 8.34165 15.8932C8.30349 15.9796 8.28341 16.0726 8.28257 16.1666C8.28173 16.2607 8.30015 16.3539 8.33676 16.441C8.37336 16.528 8.42742 16.6071 8.49577 16.6736C8.56413 16.7401 8.64541 16.7927 8.73488 16.8283C8.82435 16.864 8.92021 16.8819 9.01688 16.8811C9.11354 16.8802 9.20907 16.8607 9.29789 16.8236C9.38671 16.7865 9.46704 16.7325 9.5342 16.6648L12.1084 14.1609L12.1077 14.1609Z" fill="white"/>
</svg>
