<svg width="33" height="32" viewBox="0 0 33 32" fill="none" xmlns="http://www.w3.org/2000/svg">
<path d="M25.7503 4.3811H11.2146C9.02892 4.3811 7.25028 6.11167 7.25028 8.23825V9.52396H5.92885C5.57839 9.52396 5.24228 9.65942 4.99446 9.90054C4.74664 10.1417 4.60742 10.4687 4.60742 10.8097C4.60742 11.1507 4.74664 11.4777 4.99446 11.7188C5.24228 11.9599 5.57839 12.0954 5.92885 12.0954H7.25028V14.6668H5.92885C5.57839 14.6668 5.24228 14.8023 4.99446 15.0434C4.74664 15.2845 4.60742 15.6115 4.60742 15.9525C4.60742 16.2935 4.74664 16.6206 4.99446 16.8617C5.24228 17.1028 5.57839 17.2382 5.92885 17.2382H7.25028V19.8097H5.92885C5.57839 19.8097 5.24228 19.9451 4.99446 20.1863C4.74664 20.4274 4.60742 20.7544 4.60742 21.0954C4.60742 21.4364 4.74664 21.7634 4.99446 22.0045C5.24228 22.2456 5.57839 22.3811 5.92885 22.3811H7.25028V23.6668C7.25028 25.7934 9.02892 27.524 11.2146 27.524H25.7503C27.9359 27.524 29.7146 25.7934 29.7146 23.6668V8.23825C29.7146 6.11167 27.9359 4.3811 25.7503 4.3811ZM9.89314 8.23825C9.89314 7.52982 10.4865 6.95253 11.2146 6.95253V9.52396H9.89314V8.23825ZM9.89314 12.0954H11.2146V14.6668H9.89314V12.0954ZM9.89314 17.2382H11.2146V19.8097H9.89314V17.2382ZM9.89314 23.6668V22.3811H11.2146V24.9525C10.4865 24.9525 9.89314 24.3752 9.89314 23.6668ZM27.0717 23.6668C27.0717 24.3752 26.4784 24.9525 25.7503 24.9525H12.536V6.95253H25.7503C26.4784 6.95253 27.0717 7.52982 27.0717 8.23825V23.6668Z" fill="#D2D2D2"/>
<path d="M19.1429 16.5954C20.6025 16.5954 21.7857 15.4441 21.7857 14.0239C21.7857 12.6038 20.6025 11.4525 19.1429 11.4525C17.6832 11.4525 16.5 12.6038 16.5 14.0239C16.5 15.4441 17.6832 16.5954 19.1429 16.5954Z" fill="#D2D2D2"/>
<path d="M19.1434 17.6959C17.0793 17.6959 15.8398 18.6152 15.8398 19.5332C15.8398 19.9922 17.0793 20.4525 19.1434 20.4525C21.0806 20.4525 22.447 19.9935 22.447 19.5332C22.447 18.6152 21.152 17.6959 19.1434 17.6959Z" fill="#D2D2D2"/>
</svg>
