<svg width="26" height="21" viewBox="0 0 26 21" fill="none" xmlns="http://www.w3.org/2000/svg">
<path d="M12.9999 15.8458C9.91851 15.8458 7.42413 13.5524 7.1946 10.6462L2.93304 7.4794C2.37282 8.15518 1.85729 8.86963 1.44129 9.65088C1.34835 9.82765 1.29993 10.0229 1.29993 10.221C1.29993 10.4191 1.34835 10.6144 1.44129 10.7911C3.64438 14.9243 8.00588 17.7208 12.9999 17.7208C14.0931 17.7208 15.1478 17.5646 16.1642 17.3122L14.0562 15.7439C13.708 15.8085 13.3545 15.8426 12.9999 15.8458ZM25.7489 18.1153L21.2578 14.7778C22.622 13.6723 23.744 12.317 24.5585 10.7907C24.6515 10.614 24.6999 10.4187 24.6999 10.2206C24.6999 10.0225 24.6515 9.82725 24.5585 9.65049C22.3554 5.51729 17.9939 2.72081 12.9999 2.72081C10.9083 2.72324 8.85073 3.22954 7.01504 4.19346L1.84672 0.352446C1.77933 0.30202 1.70226 0.264857 1.61992 0.243081C1.53758 0.221306 1.45159 0.215344 1.36685 0.225538C1.28212 0.235732 1.2003 0.26188 1.12608 0.30249C1.05186 0.3431 0.986685 0.397374 0.934287 0.462212L0.136818 1.44932C0.0310303 1.58017 -0.0163727 1.74607 0.00503511 1.91053C0.0264429 2.07498 0.114908 2.22453 0.250975 2.32627L24.1531 20.0892C24.2205 20.1396 24.2976 20.1768 24.3799 20.1985C24.4622 20.2203 24.5482 20.2263 24.633 20.2161C24.7177 20.2059 24.7995 20.1797 24.8737 20.1391C24.948 20.0985 25.0131 20.0442 25.0655 19.9794L25.8634 18.9923C25.9692 18.8614 26.0165 18.6955 25.995 18.531C25.9735 18.3665 25.885 18.217 25.7489 18.1153ZM18.2852 12.5685L16.6887 11.3817C16.8231 11.0081 16.8944 10.6161 16.8999 10.2208C16.9078 9.642 16.7745 9.06948 16.5105 8.54922C16.2466 8.02896 15.8595 7.57548 15.3802 7.22519C14.9009 6.8749 14.3429 6.63757 13.7509 6.53227C13.159 6.42696 12.5496 6.45662 11.9717 6.61885C12.2167 6.93803 12.3492 7.32412 12.3499 7.72081C12.3439 7.85281 12.3229 7.98379 12.2873 8.11143L9.29694 5.88916C10.3357 5.05448 11.6462 4.59677 12.9999 4.59581C13.7683 4.5954 14.5292 4.74061 15.2391 5.02315C15.9491 5.30568 16.5941 5.72 17.1374 6.24241C17.6807 6.76482 18.1116 7.38508 18.4055 8.06773C18.6993 8.75037 18.8503 9.482 18.8499 10.2208C18.8499 11.0657 18.635 11.8532 18.2852 12.5689V12.5685Z" fill="black"/>
</svg>
