<svg width="33" height="32" viewBox="0 0 33 32" fill="none" xmlns="http://www.w3.org/2000/svg">
<path d="M7.25419 28.8096H25.7542C27.2117 28.8096 28.397 27.6564 28.397 26.2382V14.6668C28.3972 14.4979 28.3631 14.3307 28.2967 14.1747C28.2302 14.0187 28.1328 13.877 28.0099 13.7578L17.4384 3.47207C17.3158 3.35256 17.1702 3.25776 17.0099 3.19307C16.8496 3.12839 16.6777 3.09509 16.5042 3.09509C16.3306 3.09509 16.1588 3.12839 15.9985 3.19307C15.8382 3.25776 15.6925 3.35256 15.5699 3.47207L4.99851 13.7578C4.87562 13.877 4.77815 14.0187 4.71171 14.1747C4.64526 14.3307 4.61115 14.4979 4.61133 14.6668V26.2382C4.61133 27.6564 5.79665 28.8096 7.25419 28.8096V28.8096ZM13.8613 26.2382V19.8096H19.147V26.2382H13.8613ZM7.25419 15.1991L16.5042 6.19907L25.7542 15.1991L25.7555 26.2382H21.7899V19.8096C21.7899 18.3915 20.6046 17.2382 19.147 17.2382H13.8613C12.4038 17.2382 11.2185 18.3915 11.2185 19.8096V26.2382H7.25419V15.1991Z" fill="black"/>
</svg>
