<svg width="21" height="26" viewBox="0 0 21 26" fill="none" xmlns="http://www.w3.org/2000/svg">
<path d="M10.5 25.8096C11.875 25.8096 13 24.6524 13 23.2382H8C8 24.6524 9.125 25.8096 10.5 25.8096ZM18 18.0953V11.6667C18 7.71959 15.9625 4.4153 12.375 3.54102V2.66673C12.375 1.59959 11.5375 0.738159 10.5 0.738159C9.4625 0.738159 8.625 1.59959 8.625 2.66673V3.54102C5.05 4.4153 3 7.70673 3 11.6667V18.0953L0.5 20.6667V21.9524H20.5V20.6667L18 18.0953ZM15.5 19.381H5.5V11.6667C5.5 8.47816 7.3875 5.88102 10.5 5.88102C13.6125 5.88102 15.5 8.47816 15.5 11.6667V19.381Z" fill="#D2D2D2"/>
</svg>
