<svg width="102" height="101" viewBox="0 0 102 101" fill="none" xmlns="http://www.w3.org/2000/svg">
<path d="M15.9238 9.29108C15.9238 8.37524 16.6663 7.63281 17.5821 7.63281H20.8986C21.8145 7.63281 22.5569 8.37524 22.5569 9.29108C22.5569 10.2069 21.8145 10.9493 20.8986 10.9493H17.5821C16.6663 10.9493 15.9238 10.2069 15.9238 9.29108Z" fill="white"/>
<path fill-rule="evenodd" clip-rule="evenodd" d="M17.5821 7.13281H20.8986C22.0906 7.13281 23.0569 8.0991 23.0569 9.29108C23.0569 10.4831 22.0906 11.4493 20.8986 11.4493H17.5821C16.3901 11.4493 15.4238 10.4831 15.4238 9.29108C15.4238 8.0991 16.3901 7.13281 17.5821 7.13281ZM17.5821 7.63281C16.6663 7.63281 15.9238 8.37524 15.9238 9.29108C15.9238 10.2069 16.6663 10.9493 17.5821 10.9493H20.8986C21.8145 10.9493 22.5569 10.2069 22.5569 9.29108C22.5569 8.37524 21.8145 7.63281 20.8986 7.63281H17.5821Z" fill="white"/>
<path d="M25.875 9.29108C25.875 8.37524 26.6174 7.63281 27.5333 7.63281H37.4829C38.3987 7.63281 39.1411 8.37524 39.1411 9.29108C39.1411 10.2069 38.3987 10.9493 37.4829 10.9493H27.5333C26.6174 10.9493 25.875 10.2069 25.875 9.29108Z" fill="white"/>
<path fill-rule="evenodd" clip-rule="evenodd" d="M27.5333 7.13281H37.4829C38.6748 7.13281 39.6411 8.0991 39.6411 9.29108C39.6411 10.4831 38.6748 11.4493 37.4829 11.4493H27.5333C26.3413 11.4493 25.375 10.4831 25.375 9.29108C25.375 8.0991 26.3413 7.13281 27.5333 7.13281ZM27.5333 7.63281C26.6174 7.63281 25.875 8.37524 25.875 9.29108C25.875 10.2069 26.6174 10.9493 27.5333 10.9493H37.4829C38.3987 10.9493 39.1411 10.2069 39.1411 9.29108C39.1411 8.37524 38.3987 7.63281 37.4829 7.63281H27.5333Z" fill="white"/>
<path d="M25.875 92.2042C25.875 91.2883 26.6174 90.5459 27.5333 90.5459H37.4829C38.3987 90.5459 39.1411 91.2883 39.1411 92.2042C39.1411 93.12 38.3987 93.8624 37.4829 93.8624H27.5333C26.6174 93.8624 25.875 93.12 25.875 92.2042Z" fill="white"/>
<path fill-rule="evenodd" clip-rule="evenodd" d="M27.5333 90.0459H37.4829C38.6748 90.0459 39.6411 91.0122 39.6411 92.2042C39.6411 93.3961 38.6748 94.3624 37.4829 94.3624H27.5333C26.3413 94.3624 25.375 93.3961 25.375 92.2042C25.375 91.0122 26.3413 90.0459 27.5333 90.0459ZM27.5333 90.5459C26.6174 90.5459 25.875 91.2883 25.875 92.2042C25.875 93.12 26.6174 93.8624 27.5333 93.8624H37.4829C38.3987 93.8624 39.1411 93.12 39.1411 92.2042C39.1411 91.2883 38.3987 90.5459 37.4829 90.5459H27.5333Z" fill="white"/>
<path d="M50.9967 47.4309V37.4813C50.9967 36.4274 50.1423 35.573 49.0885 35.573H35.8223C34.7685 35.573 33.9141 36.4274 33.9141 37.4813V47.4309C33.9141 48.4847 34.7685 49.3391 35.8223 49.3391H49.0885C50.1423 49.3391 50.9967 48.4847 50.9967 47.4309ZM47.1802 40.5478H42.7054V39.3895H47.1802V40.5478ZM37.7306 39.3895H38.8889V45.5226H37.7306V39.3895ZM42.7054 45.5226V44.3643H47.1802V45.5226H42.7054Z" fill="white" stroke="white" stroke-width="0.5"/>
<path d="M74.2924 45.1801C74.3293 45.2668 74.3711 45.3554 74.4113 45.4342C74.4202 45.4523 74.4287 45.4703 74.4373 45.4887C74.2813 45.5126 74.1234 45.524 73.965 45.5231H73.9635C72.2701 45.5231 70.897 44.1501 70.897 42.4566C70.897 40.7631 72.2701 39.3901 73.9635 39.3901L73.9643 39.3901C74.121 39.3896 74.2778 39.4016 74.433 39.4255C74.4295 39.4338 74.4261 39.442 74.4227 39.4501C74.4145 39.4696 74.4065 39.4886 74.3988 39.5068C74.3904 39.5244 74.381 39.5434 74.3713 39.5635C74.3477 39.6118 74.3214 39.6657 74.2985 39.7173L74.2985 39.7173L74.2974 39.7199C74.1328 40.1028 74.0027 40.4999 73.9086 40.9063L73.9086 40.9063L73.9079 40.9096C73.8987 40.9518 73.8911 40.9934 73.8844 41.0312L73.8823 41.0426C73.8762 41.0766 73.8707 41.1072 73.8646 41.1374C73.6786 42.0057 73.6786 42.9034 73.8644 43.7725C73.8684 43.7931 73.8738 43.8231 73.8797 43.8561C73.8888 43.9066 73.899 43.964 73.9076 44.0044L73.9075 44.0044L73.9087 44.0096C74.0018 44.4096 74.1294 44.8018 74.2924 45.1801ZM74.2924 45.1801C74.2923 45.1799 74.2923 45.1798 74.2922 45.1796L74.5222 45.0816L74.2926 45.1806C74.2926 45.1804 74.2925 45.1803 74.2924 45.1801ZM78.5388 44.7216L78.5372 44.7201C77.8923 44.1396 77.5263 43.3113 77.5301 42.4439C77.5338 41.576 77.9079 40.7514 78.5581 40.1768L78.5582 40.1768L78.5606 40.1746C79.1177 39.6691 79.8439 39.3893 80.5963 39.3901H80.5966C82.2901 39.3901 83.6631 40.7631 83.6631 42.4566C83.6631 44.15 82.2902 45.523 80.5968 45.5231C79.835 45.5224 79.1009 45.2365 78.5388 44.7216ZM87.0904 40.0948C86.0948 37.3691 83.4969 35.561 80.5957 35.5735C79.434 35.5768 78.2934 35.8759 77.28 36.4394C74.4076 34.8421 70.796 35.4989 68.6704 38.0236C66.5135 40.5846 66.5135 44.327 68.6704 46.8888C70.796 49.4135 74.4077 50.0695 77.28 48.4722C79.7646 49.8546 82.8509 49.5674 85.0394 47.7382L84.8791 47.5464L85.0394 47.7382C87.266 45.8771 88.086 42.8204 87.0904 40.0948Z" fill="white" stroke="white" stroke-width="0.5"/>
<path d="M44.1152 57.3807C44.1152 56.4648 44.8577 55.7224 45.7735 55.7224C46.6893 55.7224 47.4318 56.4648 47.4318 57.3807C47.4318 58.2965 46.6893 59.0389 45.7735 59.0389C44.8577 59.0389 44.1152 58.2965 44.1152 57.3807Z" fill="white"/>
<path fill-rule="evenodd" clip-rule="evenodd" d="M45.7735 59.5389C44.5815 59.5389 43.6152 58.5727 43.6152 57.3807C43.6152 56.1887 44.5815 55.2224 45.7735 55.2224C46.9655 55.2224 47.9318 56.1887 47.9318 57.3807C47.9318 58.5727 46.9655 59.5389 45.7735 59.5389ZM45.7735 55.7224C44.8577 55.7224 44.1152 56.4648 44.1152 57.3807C44.1152 58.2965 44.8577 59.0389 45.7735 59.0389C46.6893 59.0389 47.4318 58.2965 47.4318 57.3807C47.4318 56.4648 46.6893 55.7224 45.7735 55.7224Z" fill="white"/>
<path d="M50.748 57.3807C50.748 56.4648 51.4905 55.7224 52.4063 55.7224C53.3221 55.7224 54.0646 56.4648 54.0646 57.3807C54.0646 58.2965 53.3221 59.0389 52.4063 59.0389C51.4905 59.0389 50.748 58.2965 50.748 57.3807Z" fill="white"/>
<path fill-rule="evenodd" clip-rule="evenodd" d="M52.4063 59.5389C51.2143 59.5389 50.248 58.5727 50.248 57.3807C50.248 56.1887 51.2143 55.2224 52.4063 55.2224C53.5983 55.2224 54.5646 56.1887 54.5646 57.3807C54.5646 58.5727 53.5983 59.5389 52.4063 59.5389ZM52.4063 55.7224C51.4905 55.7224 50.748 56.4648 50.748 57.3807C50.748 58.2965 51.4905 59.0389 52.4063 59.0389C53.3221 59.0389 54.0646 58.2965 54.0646 57.3807C54.0646 56.4648 53.3221 55.7224 52.4063 55.7224Z" fill="white"/>
<path d="M57.3809 57.3807C57.3809 56.4648 58.1233 55.7224 59.0391 55.7224C59.955 55.7224 60.6974 56.4648 60.6974 57.3807C60.6974 58.2965 59.955 59.0389 59.0391 59.0389C58.1233 59.0389 57.3809 58.2965 57.3809 57.3807Z" fill="white"/>
<path fill-rule="evenodd" clip-rule="evenodd" d="M59.0391 59.5389C57.8471 59.5389 56.8809 58.5727 56.8809 57.3807C56.8809 56.1887 57.8471 55.2224 59.0391 55.2224C60.2311 55.2224 61.1974 56.1887 61.1974 57.3807C61.1974 58.5727 60.2311 59.5389 59.0391 59.5389ZM59.0391 55.7224C58.1233 55.7224 57.3809 56.4648 57.3809 57.3807C57.3809 58.2965 58.1233 59.0389 59.0391 59.0389C59.955 59.0389 60.6974 58.2965 60.6974 57.3807C60.6974 56.4648 59.955 55.7224 59.0391 55.7224Z" fill="white"/>
<path d="M64.0137 57.3807C64.0137 56.4648 64.7561 55.7224 65.6719 55.7224C66.5878 55.7224 67.3302 56.4648 67.3302 57.3807C67.3302 58.2965 66.5878 59.0389 65.6719 59.0389C64.7561 59.0389 64.0137 58.2965 64.0137 57.3807Z" fill="white"/>
<path fill-rule="evenodd" clip-rule="evenodd" d="M65.6719 59.5389C64.48 59.5389 63.5137 58.5727 63.5137 57.3807C63.5137 56.1887 64.48 55.2224 65.6719 55.2224C66.8639 55.2224 67.8302 56.1887 67.8302 57.3807C67.8302 58.5727 66.8639 59.5389 65.6719 59.5389ZM65.6719 55.7224C64.7561 55.7224 64.0137 56.4648 64.0137 57.3807C64.0137 58.2965 64.7561 59.0389 65.6719 59.0389C66.5878 59.0389 67.3302 58.2965 67.3302 57.3807C67.3302 56.4648 66.5878 55.7224 65.6719 55.7224Z" fill="white"/>
<path d="M70.6465 57.3807C70.6465 56.4648 71.3889 55.7224 72.3047 55.7224C73.2206 55.7224 73.963 56.4648 73.963 57.3807C73.963 58.2965 73.2206 59.0389 72.3047 59.0389C71.3889 59.0389 70.6465 58.2965 70.6465 57.3807Z" fill="white"/>
<path fill-rule="evenodd" clip-rule="evenodd" d="M72.3047 59.5389C71.1128 59.5389 70.1465 58.5727 70.1465 57.3807C70.1465 56.1887 71.1128 55.2224 72.3047 55.2224C73.4967 55.2224 74.463 56.1887 74.463 57.3807C74.463 58.5727 73.4967 59.5389 72.3047 59.5389ZM72.3047 55.7224C71.3889 55.7224 70.6465 56.4648 70.6465 57.3807C70.6465 58.2965 71.3889 59.0389 72.3047 59.0389C73.2206 59.0389 73.963 58.2965 73.963 57.3807C73.963 56.4648 73.2206 55.7224 72.3047 55.7224Z" fill="white"/>
<path d="M77.2812 57.3807C77.2812 56.4648 78.0237 55.7224 78.9395 55.7224C79.8553 55.7224 80.5978 56.4648 80.5978 57.3807C80.5978 58.2965 79.8553 59.0389 78.9395 59.0389C78.0237 59.0389 77.2812 58.2965 77.2812 57.3807Z" fill="white"/>
<path fill-rule="evenodd" clip-rule="evenodd" d="M78.9395 59.5389C77.7475 59.5389 76.7812 58.5726 76.7812 57.3807C76.7812 56.1887 77.7475 55.2224 78.9395 55.2224C80.1315 55.2224 81.0978 56.1887 81.0978 57.3807C81.0978 58.5726 80.1315 59.5389 78.9395 59.5389ZM78.9395 55.7224C78.0237 55.7224 77.2812 56.4648 77.2812 57.3807C77.2812 58.2965 78.0237 59.0389 78.9395 59.0389C79.8553 59.0389 80.5978 58.2965 80.5978 57.3807C80.5978 56.4648 79.8553 55.7224 78.9395 55.7224Z" fill="white"/>
<path d="M44.1152 64.0137C44.1152 63.0979 44.8577 62.3555 45.7735 62.3555H55.7231C56.6389 62.3555 57.3813 63.0979 57.3813 64.0137C57.3813 64.9296 56.6389 65.672 55.7231 65.672H45.7735C44.8577 65.672 44.1152 64.9296 44.1152 64.0137Z" fill="white"/>
<path fill-rule="evenodd" clip-rule="evenodd" d="M45.7735 61.8555H55.7231C56.9151 61.8555 57.8813 62.8218 57.8813 64.0137C57.8813 65.2057 56.9151 66.172 55.7231 66.172H45.7735C44.5815 66.172 43.6152 65.2057 43.6152 64.0137C43.6152 62.8218 44.5815 61.8555 45.7735 61.8555ZM45.7735 62.3555C44.8577 62.3555 44.1152 63.0979 44.1152 64.0137C44.1152 64.9296 44.8577 65.672 45.7735 65.672H55.7231C56.6389 65.672 57.3813 64.9296 57.3813 64.0137C57.3813 63.0979 56.6389 62.3555 55.7231 62.3555H45.7735Z" fill="white"/>
<path d="M67.332 64.0137C67.332 63.0979 68.0745 62.3555 68.9903 62.3555H78.9399C79.8557 62.3555 80.5981 63.0979 80.5981 64.0137C80.5981 64.9296 79.8557 65.672 78.9399 65.672H68.9903C68.0745 65.672 67.332 64.9296 67.332 64.0137Z" fill="white"/>
<path fill-rule="evenodd" clip-rule="evenodd" d="M68.9903 61.8555H78.9399C80.1319 61.8555 81.0981 62.8218 81.0981 64.0137C81.0981 65.2057 80.1319 66.172 78.9399 66.172H68.9903C67.7983 66.172 66.832 65.2057 66.832 64.0137C66.832 62.8218 67.7983 61.8555 68.9903 61.8555ZM68.9903 62.3555C68.0745 62.3555 67.332 63.0979 67.332 64.0137C67.332 64.9296 68.0745 65.672 68.9903 65.672H78.9399C79.8557 65.672 80.5981 64.9296 80.5981 64.0137C80.5981 63.0979 79.8557 62.3555 78.9399 62.3555H68.9903Z" fill="white"/>
<path d="M100.828 58.164L90.5261 19.6919C89.8087 17.0466 87.0857 15.4799 84.4372 16.19L64.0141 21.6652V9.29133C64.0084 4.7149 60.3 1.00567 55.7228 1H9.29133C4.71409 1.00567 1.00567 4.7149 1 9.29133V92.2046C1.00567 96.7819 4.71409 100.49 9.29133 100.496H55.7228C60.3 100.49 64.0084 96.7819 64.0141 92.2046V72.3054H88.8881C91.6354 72.3054 93.8629 70.0779 93.8629 67.3306V65.1865L97.3171 64.2546C98.5875 63.9096 99.6693 63.0748 100.325 61.9332C100.993 60.7955 101.174 59.4369 100.828 58.164ZM85.293 19.4069C86.1716 19.1778 87.0728 19.6935 87.3197 20.568L89.6492 29.2691C89.3982 29.2229 89.1432 29.197 88.8881 29.1905H48.7367L85.293 19.4069ZM9.29133 4.31653H55.7228C58.4701 4.31653 60.6976 6.54402 60.6976 9.29133V14.2661H4.31653V9.29133C4.31653 6.54402 6.54402 4.31653 9.29133 4.31653ZM55.7228 97.1794H9.29133C6.54402 97.1794 4.31653 94.9519 4.31653 92.2046V87.2298H60.6976V92.2046C60.6976 94.9519 58.4701 97.1794 55.7228 97.1794ZM60.6976 83.9133H4.31653V17.5827H60.6976V22.5575L35.9216 29.1905H30.8488V25.874C30.8488 24.9582 30.1064 24.2157 29.1905 24.2157C28.2747 24.2157 27.5323 24.9582 27.5323 25.874V75.622C27.5323 76.5378 28.2747 77.2802 29.1905 77.2802C30.1064 77.2802 30.8488 76.5378 30.8488 75.622V72.3054H60.6976V83.9133ZM90.5464 67.3306C90.5464 68.2464 89.8039 68.9889 88.8881 68.9889H30.8488V32.5071H88.8881C89.8039 32.5071 90.5464 33.2495 90.5464 34.1653V67.3306ZM97.4547 60.2717C97.2361 60.6547 96.875 60.9348 96.4499 61.053L93.8629 61.751V45.0023L97.6207 59.0312C97.7333 59.4498 97.6733 59.8968 97.4547 60.2717Z" fill="white"/>
<path fill-rule="evenodd" clip-rule="evenodd" d="M90.5261 19.6919L100.828 58.164C101.174 59.4369 100.993 60.7955 100.325 61.9332C99.6693 63.0748 98.5875 63.9096 97.3171 64.2546L93.8629 65.1865V67.3306C93.8629 70.0779 91.6354 72.3054 88.8881 72.3054H64.0141V92.2046C64.0084 96.7819 60.3 100.49 55.7228 100.496H9.29133C4.71409 100.49 1.00567 96.7819 1 92.2046V9.29133C1.00567 4.7149 4.71409 1.00567 9.29133 1H55.7228C60.3 1.00567 64.0084 4.7149 64.0141 9.29133V21.6652L84.4372 16.19C87.0857 15.4799 89.8087 17.0466 90.5261 19.6919ZM64.5141 21.0135V9.29133C64.5081 4.43928 60.5763 0.50601 55.7234 0.5L9.29133 0.5C4.4384 0.506009 0.50601 4.43866 0.5 9.29071L0.5 92.2046C0.506009 97.0575 4.43782 100.99 9.29071 100.996H55.7228C60.5757 100.99 64.5081 97.0581 64.5141 92.2052V72.8054H88.8881C91.9115 72.8054 94.3629 70.3541 94.3629 67.3306V65.5695L97.4473 64.7373C98.8448 64.3579 100.036 63.4397 100.757 62.1843C101.492 60.9317 101.692 59.436 101.311 58.0345C101.311 58.0339 101.311 58.0333 101.31 58.0327L91.0091 19.5626L91.0087 19.5611C90.2192 16.6498 87.2224 14.9256 84.3077 15.707L64.5141 21.0135ZM88.8881 29.1905C88.9633 29.1924 89.0384 29.196 89.1135 29.2013C89.2931 29.214 89.4722 29.2365 89.6492 29.2691L87.3197 20.568C87.0728 19.6935 86.1716 19.1778 85.293 19.4069L48.7367 29.1905H88.8881ZM52.5389 28.6905H88.9008C88.9263 28.6912 88.9519 28.6922 88.9774 28.6932L86.8385 20.7039C86.8383 20.7029 86.838 20.702 86.8377 20.701C86.6637 20.0908 86.0344 19.7311 85.4206 19.8904C85.4201 19.8905 85.4197 19.8906 85.4192 19.8907L52.5389 28.6905ZM97.0205 60.0238L97.0228 60.0198C97.1743 59.76 97.2157 59.4504 97.1379 59.161L94.3629 48.8014V61.0982L96.3159 60.5713C96.3164 60.5712 96.317 60.571 96.3175 60.5709C96.6156 60.4875 96.8679 60.2912 97.0205 60.0238ZM96.4499 61.053L93.8629 61.751V45.0023L97.6207 59.0312C97.7333 59.4498 97.6733 59.8968 97.4547 60.2717C97.2361 60.6547 96.875 60.9348 96.4499 61.053ZM55.7228 4.81653H9.29133C6.82016 4.81653 4.81653 6.82016 4.81653 9.29133V13.7661H60.1976V9.29133C60.1976 6.82016 58.1939 4.81653 55.7228 4.81653ZM9.29133 96.6794H55.7228C58.1939 96.6794 60.1976 94.6758 60.1976 92.2046V87.7298H4.81653V92.2046C4.81653 94.6758 6.82016 96.6794 9.29133 96.6794ZM4.81653 83.4133H60.1976V72.8054H31.3488V75.622C31.3488 76.8139 30.3825 77.7802 29.1905 77.7802C27.9985 77.7802 27.0323 76.8139 27.0323 75.622V25.874C27.0323 24.682 27.9985 23.7157 29.1905 23.7157C30.3825 23.7157 31.3488 24.682 31.3488 25.874V28.6905H35.8558L60.1976 22.1737V18.0827H4.81653V83.4133ZM35.9216 29.1905L60.6976 22.5575V17.5827H4.31653V83.9133H60.6976V72.3054H30.8488V75.622C30.8488 76.5378 30.1064 77.2802 29.1905 77.2802C28.2747 77.2802 27.5323 76.5378 27.5323 75.622V25.874C27.5323 24.9582 28.2747 24.2157 29.1905 24.2157C30.1064 24.2157 30.8488 24.9582 30.8488 25.874V29.1905H35.9216ZM88.8881 68.4889C89.5277 68.4889 90.0464 67.9703 90.0464 67.3306V34.1653C90.0464 33.5257 89.5277 33.007 88.8881 33.007H31.3488V68.4889H88.8881ZM55.7228 4.31653H9.29133C6.54402 4.31653 4.31653 6.54402 4.31653 9.29133V14.2661H60.6976V9.29133C60.6976 6.54402 58.4701 4.31653 55.7228 4.31653ZM9.29133 97.1794H55.7228C58.4701 97.1794 60.6976 94.9519 60.6976 92.2046V87.2298H4.31653V92.2046C4.31653 94.9519 6.54402 97.1794 9.29133 97.1794ZM88.8881 68.9889C89.8039 68.9889 90.5464 68.2464 90.5464 67.3306V34.1653C90.5464 33.2495 89.8039 32.5071 88.8881 32.5071H30.8488V68.9889H88.8881Z" fill="white"/>
</svg>
