<svg width="20" height="21" viewBox="0 0 20 21" fill="none" xmlns="http://www.w3.org/2000/svg">
<path fill-rule="evenodd" clip-rule="evenodd" d="M3.62946 2.86C5.35297 1.28461 7.69055 0.399567 10.128 0.399567C12.5654 0.399567 14.903 1.28461 16.6265 2.86C18.35 4.43538 19.3182 6.57206 19.3182 8.8C19.3182 11.0279 18.35 13.1646 16.6265 14.74L10.128 20.68L3.62946 14.74C2.77601 13.96 2.09901 13.0339 1.63712 12.0147C1.17523 10.9955 0.9375 9.90317 0.9375 8.8C0.9375 7.69682 1.17523 6.60445 1.63712 5.58526C2.09901 4.56607 2.77601 3.64002 3.62946 2.86ZM10.128 11.2C10.8243 11.2 11.4922 10.9471 11.9846 10.4971C12.477 10.047 12.7536 9.43651 12.7536 8.8C12.7536 8.16348 12.477 7.55303 11.9846 7.10294C11.4922 6.65285 10.8243 6.4 10.128 6.4C9.43159 6.4 8.76375 6.65285 8.27134 7.10294C7.77894 7.55303 7.5023 8.16348 7.5023 8.8C7.5023 9.43651 7.77894 10.047 8.27134 10.4971C8.76375 10.9471 9.43159 11.2 10.128 11.2Z" fill="black"/>
</svg>
