<svg width="28" height="27" viewBox="0 0 28 27" fill="none" xmlns="http://www.w3.org/2000/svg">
<path d="M26.4984 11.7034C26.4163 11.0575 26.0547 10.4958 25.5069 10.1612C24.9689 9.83325 24.3192 9.77233 23.7177 9.99944C23.24 10.1789 22.7053 9.93073 22.4884 9.44105C22.2331 8.86273 21.9175 8.30876 21.5527 7.79473C21.236 7.34935 21.2952 6.76438 21.6885 6.43642C22.1761 6.03202 22.4478 5.43375 22.4357 4.7956C22.4226 4.14748 22.1213 3.54921 21.6063 3.15592C20.7692 2.51444 19.8555 1.98042 18.8902 1.56942C18.2931 1.31573 17.627 1.34896 17.0649 1.66248C16.5127 1.96936 16.1358 2.50671 16.0328 3.13598C15.9484 3.64783 15.4729 3.97911 14.9317 3.93367C14.3192 3.86828 13.6804 3.86828 13.0669 3.93367C12.518 3.97911 12.0502 3.64892 11.9668 3.13707C11.8639 2.50665 11.488 1.96936 10.9358 1.66243C10.3715 1.34891 9.70759 1.31453 9.10936 1.56828C8.143 1.98042 7.22923 2.51444 6.39326 3.15478C5.87942 3.54921 5.57702 4.14633 5.56495 4.79446C5.55181 5.43261 5.82462 6.03197 6.31217 6.4386C6.7066 6.76656 6.76469 7.3493 6.44801 7.79577C6.08208 8.31203 5.76654 8.86491 5.51231 9.441C5.29429 9.93291 4.7541 10.1789 4.27205 9.99497C3.68261 9.77228 3.03508 9.8332 2.49489 10.1612C1.94705 10.4946 1.58441 11.0563 1.50223 11.7023C1.43434 12.233 1.40039 12.7703 1.40039 13.2999C1.40039 13.8294 1.43434 14.3668 1.50229 14.8964C1.58446 15.5422 1.94602 16.1051 2.49387 16.4386C3.034 16.7676 3.68266 16.8307 4.28417 16.6003C4.75313 16.4242 5.29435 16.6668 5.51241 17.1587C5.76659 17.7348 6.08213 18.2888 6.44811 18.805C6.76474 19.2504 6.70558 19.8343 6.31114 20.1633C5.82467 20.5677 5.55294 21.166 5.565 21.8042C5.57815 22.4523 5.87947 23.0506 6.39332 23.445C7.2282 24.0842 8.14197 24.6183 9.10941 25.0315C9.37458 25.1445 9.65284 25.1999 9.93007 25.1999C10.2774 25.1999 10.6225 25.1124 10.9348 24.9373C11.487 24.6305 11.8639 24.092 11.9669 23.4638C12.0513 22.952 12.5323 22.6119 13.068 22.6672C13.6805 22.7326 14.3193 22.7326 14.9328 22.6672C15.4774 22.613 15.9485 22.952 16.0329 23.4638C16.137 24.0931 16.5127 24.6305 17.065 24.9373C17.6292 25.252 18.2932 25.2841 18.8903 25.0315C19.8567 24.6193 20.7704 24.0853 21.6064 23.445C22.1202 23.0506 22.4216 22.4523 22.4347 21.8042C22.4468 21.166 22.174 20.5677 21.6853 20.1622C21.2919 19.8343 21.2339 19.2516 21.5505 18.8051C21.9164 18.291 22.2309 17.7359 22.4862 17.1598C22.7054 16.6668 23.2488 16.4253 23.7155 16.6004L23.7276 16.6048C24.3192 16.8308 24.9679 16.7677 25.5058 16.4397C26.0548 16.1051 26.4152 15.5434 26.4974 14.8986C26.5664 14.3712 26.6004 13.8339 26.6004 13.2999C26.6004 12.7659 26.5663 12.2286 26.4984 11.7034ZM14.0003 18.2854C11.282 18.2854 9.06992 16.0486 9.06992 13.2999C9.06992 10.5512 11.282 8.31432 14.0003 8.31432C16.7186 8.31432 18.9308 10.5512 18.9308 13.2999C18.9308 16.0486 16.7186 18.2854 14.0003 18.2854Z" stroke="white" stroke-width="2.3"/>
</svg>
