<svg width="20" height="24" viewBox="0 0 20 24" fill="none" xmlns="http://www.w3.org/2000/svg">
<path d="M1.83398 8.5L4.16732 8.5L1.83398 8.5ZM8.83399 8.5L11.1673 8.5L8.83399 8.5ZM15.834 8.5L18.1673 8.5L15.834 8.5ZM1.83398 20.1667C1.83398 20.7855 2.07982 21.379 2.5174 21.8166C2.95499 22.2542 3.54848 22.5 4.16732 22.5L7.66732 22.5C7.66732 21.8812 7.91315 21.2877 8.35074 20.8501C8.78832 20.4125 9.38181 20.1667 10.0007 20.1667C10.6195 20.1667 11.213 20.4125 11.6506 20.8501C12.0882 21.2877 12.334 21.8812 12.334 22.5L15.834 22.5C16.4528 22.5 17.0463 22.2542 17.4839 21.8166C17.9215 21.379 18.1673 20.7855 18.1673 20.1667L18.1673 3.83334C18.1673 3.2145 17.9215 2.621 17.4839 2.18342C17.0463 1.74584 16.4528 1.5 15.834 1.5L12.334 1.5C12.334 2.11884 12.0882 2.71233 11.6506 3.14992C11.213 3.5875 10.6195 3.83334 10.0007 3.83334C9.38181 3.83334 8.78832 3.5875 8.35074 3.14992C7.91315 2.71233 7.66732 2.11884 7.66732 1.5L4.16732 1.5C3.54848 1.5 2.95499 1.74584 2.5174 2.18342C2.07982 2.62101 1.83398 3.2145 1.83398 3.83334L1.83398 20.1667Z" stroke="#D2D2D2" stroke-width="2" stroke-linecap="round" stroke-linejoin="round"/>
</svg>
