<svg width="18" height="20" viewBox="0 0 18 20" fill="none" xmlns="http://www.w3.org/2000/svg">
<path fill-rule="evenodd" clip-rule="evenodd" d="M5.48405 1.28125C6.7878 0.93625 8.17155 0.625 9.0003 0.625C9.8278 0.625 11.2128 0.93625 12.5166 1.28125C13.6794 1.59347 14.8347 1.93315 15.9816 2.3C16.6416 2.51 17.1391 3.07875 17.2353 3.78C17.9516 9.02625 16.2903 12.9137 14.2766 15.4862C13.4184 16.5903 12.3996 17.5594 11.2541 18.3612C10.8557 18.6403 10.4347 18.8853 9.9953 19.0938C9.6578 19.2487 9.2978 19.375 9.0003 19.375C8.7028 19.375 8.3428 19.2487 8.0053 19.0938C7.56584 18.8855 7.14476 18.6404 6.74655 18.3612C5.60148 17.5593 4.58308 16.5902 3.7253 15.4862C1.70905 12.9137 0.0490519 9.02625 0.765302 3.78C0.813191 3.44009 0.956361 3.12069 1.17824 2.85877C1.40012 2.59685 1.69164 2.40312 2.01905 2.3C3.16586 1.93316 4.32118 1.59348 5.48405 1.28125ZM9.64405 9.88625C10.0562 9.73544 10.4024 9.44484 10.6223 9.06505C10.8423 8.68527 10.922 8.24037 10.8477 7.80784C10.7733 7.37531 10.5496 6.98256 10.2155 6.698C9.8814 6.41343 9.45806 6.25508 9.01921 6.25053C8.58036 6.24597 8.15382 6.3955 7.81388 6.67307C7.47394 6.95064 7.24213 7.33867 7.15883 7.76956C7.07554 8.20045 7.14603 8.64691 7.35804 9.03118C7.57004 9.41545 7.91012 9.71317 8.31905 9.8725C8.29267 9.92624 8.27415 9.98349 8.26405 10.0425L7.8478 12.5425C7.83292 12.632 7.83771 12.7237 7.86182 12.8111C7.88593 12.8986 7.9288 12.9797 7.98744 13.049C8.04608 13.1182 8.11909 13.1738 8.20139 13.212C8.2837 13.2502 8.37333 13.27 8.46405 13.27H9.5078C9.5989 13.2701 9.68891 13.2502 9.77153 13.2118C9.85414 13.1734 9.92737 13.1174 9.98607 13.0478C10.0448 12.9781 10.0875 12.8964 10.1114 12.8085C10.1352 12.7206 10.1395 12.6285 10.1241 12.5387L9.6903 10.0387C9.68146 9.98615 9.66591 9.9349 9.64405 9.88625Z" fill="white"/>
</svg>
